<?xml version="1.0" encoding="UTF-8"?>
<svg id="_레이어_1" data-name="레이어 1" xmlns="http://www.w3.org/2000/svg" viewBox="0 0 14.45 10.06">
  <defs>
    <style>
      .cls-1 {
        fill: #00c8f4;
        stroke-width: 0px;
      }
    </style>
  </defs>
  <path class="cls-1" d="M4.77,8.96L13.57.16c.1-.1.21-.15.35-.16.13,0,.26.05.37.16.11.11.17.23.17.36,0,.13-.06.25-.17.36L5.33,9.82c-.16.16-.35.24-.57.24s-.4-.08-.57-.24L.15,5.77c-.1-.1-.15-.21-.15-.35,0-.13.05-.26.16-.37.11-.11.23-.17.36-.17s.25.06.36.17l3.9,3.9Z"/>
</svg>